<?xml version="1.0" standalone="no"?>
<svg viewBox="0 0 200 200" xmlns="http://www.w3.org/2000/svg">
  <path fill="#FF0066" d="M39.9,-70.3C47.4,-64.9,46.1,-45.4,52.5,-31.3C58.9,-17.2,73.1,-8.6,73.6,0.3C74.2,9.2,61.1,18.5,54.4,32.1C47.7,45.7,47.4,63.7,39.4,74.5C31.4,85.3,15.7,89,3,83.8C-9.7,78.7,-19.5,64.7,-28.6,54.5C-37.7,44.3,-46.2,37.9,-49.7,29.5C-53.3,21,-51.9,10.5,-57,-2.9C-62,-16.3,-73.4,-32.7,-69.9,-41.1C-66.3,-49.5,-47.7,-50,-33.6,-51.6C-19.4,-53.1,-9.7,-55.7,3.3,-61.4C16.2,-67,32.5,-75.7,39.9,-70.3Z" transform="translate(100 100)" />
</svg>
